<?xml version="1.0" encoding="utf-8"?>
<svg width="324" height="72" viewBox="42.901 -20.4128 1808.2786 421.4128" xmlns="http://www.w3.org/2000/svg">
  <g>
    <path opacity="1.000000" stroke="none" d="M 94.946 69.886 C 118.794 48.31 146.828 35.569 178.448 30.522 C 224.347 23.195 265.977 33.83 303.722 60.569 C 304.531 61.142 305.282 61.798 306.716 62.936 C 300.707 66.634 301.212 72.804 300.445 78.431 C 296.263 109.106 292.176 139.794 288.101 170.484 C 286.935 179.264 290.081 182.975 298.819 183.427 C 299.943 183.485 301.062 183.648 302.733 183.818 C 302.733 186.007 302.733 187.956 302.733 189.905 C 302.734 223.225 302.783 256.545 302.677 289.865 C 302.663 294.453 303.273 298.5 308.312 301.979 C 300.738 306.86 293.888 311.773 286.589 315.891 C 260.935 330.365 233.231 337.095 203.819 337.033 C 185.509 336.995 167.199 337.026 148.153 337.026 C 148.153 358.23 148.153 379.152 148.077 400.537 C 113.312 401 78.625 401 43.469 401 C 43.02 326.703 42.546 252.4 43.289 178.11 C 43.609 146.11 54.911 117.201 74.392 91.664 C 74.649 91.327 75.071 91.116 76.003 90.384 C 76.003 102.397 76.206 113.823 75.949 125.238 C 75.659 138.112 80.546 147.723 92.091 153.952 C 93.538 154.733 94.537 157.661 94.544 159.599 C 94.684 199.08 94.647 238.561 94.651 278.042 C 94.651 283.039 94.559 288.041 94.724 293.033 C 94.901 298.355 98.058 301.732 102.815 302.053 C 107.728 302.384 111.302 299.631 112.345 294.455 C 112.735 292.52 112.763 290.489 112.764 288.501 C 112.786 245.855 112.822 203.208 112.71 160.562 C 112.699 156.719 113.443 154.368 117.221 152.329 C 126.303 147.426 130.76 139.171 130.883 128.947 C 131.096 111.292 130.968 93.631 130.927 75.973 C 130.914 70.411 128.609 67.598 124.45 67.76 C 120.547 67.911 118.556 70.595 118.534 75.981 C 118.493 86.274 118.522 96.568 118.522 107.105 C 115.492 107.105 112.936 107.105 109.851 107.105 C 109.851 96.327 110.158 85.86 109.8 75.408 C 109.561 68.426 103.294 66.803 100 69.788 C 98.903 70.782 98.669 71.651 98.35 72.202 C 98.046 72.728 97.546 74.69 97.569 75.517 C 97.046 75.884 94.545 71.771 94.173 70.562 M 243.355 122.076 C 259.703 132.119 270.276 146.692 276.369 164.882 C 278.883 149.914 280.953 135.255 282.697 120.557 C 282.907 118.79 281.798 116.412 280.538 114.992 C 246.69 76.84 185.585 71.3 145.527 102.758 C 144.217 103.786 143.151 105.925 143.081 107.593 C 142.804 114.246 143.053 120.92 142.947 127.584 C 142.743 140.304 137.905 150.909 127.817 158.774 C 125.107 160.887 124.319 163.143 124.334 166.396 C 124.44 190.391 124.3 214.387 124.517 238.38 C 124.541 241.097 125.631 244.352 127.351 246.424 C 149.971 273.662 178.968 286.763 214.422 284.027 C 245.665 281.616 270.366 267.028 288.772 241.763 C 289.864 240.264 290.678 238.174 290.701 236.348 C 290.866 223.519 290.832 210.687 290.721 197.858 C 290.71 196.564 290.126 194.836 289.187 194.069 C 285.68 191.204 281.915 188.655 278.38 186.084 C 275.244 227.534 244.455 250.779 215.426 254.723 C 185.287 258.817 154.861 242.218 141.31 213.816 C 127.868 185.642 134.752 151.668 158.256 130.194 C 181.223 109.21 215.994 105.733 243.355 122.076 M 244.666 229.194 C 257.544 218.122 265.189 204.147 265.882 187.185 C 267.38 150.527 240.248 123.196 203.587 123.784 C 168.506 124.347 140.277 159.658 147.433 194.025 C 156.908 239.533 207.444 258.154 244.666 229.194 Z M 94.698 70.108 C 95.367 71.143 97.187 72.979 97.614 75.007 C 97.613 86.539 97.606 96.526 97.549 107.237 C 95.393 107.237 91.691 107.285 88.664 107.285 C 88.664 102.75 88.677 98.343 88.664 93.936 C 88.653 90.273 88.64 86.524 88.684 82.908 C 88.751 77.34 90.272 73.823 94.698 70.108 Z M 338.202332 270.183075 C 333.065155 276.526428 328.134888 282.578522 323.20462 288.630615 C 322.805237 288.505554 322.405853 288.380493 322.00647 288.255432 C 322.00647 217.880447 322.00647 147.505463 322.00647 77.142334 C 363.932465 115.62796 389.492981 197.299835 338.202332 270.183075 Z" style="opacity: 0.9; fill-rule: nonzero; fill: rgb(255, 255, 255);"/>
  </g>
  <path d="M 556.404 148.19 Q 556.404 164.09 548.904 178.19 Q 541.404 192.29 524.904 201.14 Q 508.404 209.99 482.604 209.99 L 444.804 209.99 L 444.804 294.59 L 410.604 294.59 L 410.604 86.09 L 482.604 86.09 Q 506.604 86.09 523.254 94.34 Q 539.904 102.59 548.154 116.69 Q 556.404 130.79 556.404 148.19 Z M 482.604 182.09 Q 502.104 182.09 511.704 173.24 Q 521.304 164.39 521.304 148.19 Q 521.304 113.99 482.604 113.99 L 444.804 113.99 L 444.804 182.09 L 482.604 182.09 Z M 577.691 211.19 Q 577.691 186.29 588.041 167.09 Q 598.391 147.89 616.241 137.24 Q 634.091 126.59 655.691 126.59 Q 675.191 126.59 689.741 134.24 Q 704.291 141.89 712.991 153.29 L 712.991 129.29 L 747.491 129.29 L 747.491 294.59 L 712.991 294.59 L 712.991 269.99 Q 704.291 281.69 689.291 289.49 Q 674.291 297.29 655.091 297.29 Q 633.791 297.29 616.091 286.34 Q 598.391 275.39 588.041 255.74 Q 577.691 236.09 577.691 211.19 Z M 712.991 211.79 Q 712.991 194.69 705.941 182.09 Q 698.891 169.49 687.491 162.89 Q 676.091 156.29 662.891 156.29 Q 649.691 156.29 638.291 162.74 Q 626.891 169.19 619.841 181.64 Q 612.791 194.09 612.791 211.19 Q 612.791 228.29 619.841 241.19 Q 626.891 254.09 638.441 260.84 Q 649.991 267.59 662.891 267.59 Q 676.091 267.59 687.491 260.99 Q 698.891 254.39 705.941 241.64 Q 712.991 228.89 712.991 211.79 Z M 875.885 126.59 Q 895.385 126.59 910.835 134.69 Q 926.285 142.79 934.985 158.69 Q 943.685 174.59 943.685 197.09 L 943.685 294.59 L 909.785 294.59 L 909.785 202.19 Q 909.785 179.99 898.685 168.14 Q 887.585 156.29 868.385 156.29 Q 849.185 156.29 837.935 168.14 Q 826.685 179.99 826.685 202.19 L 826.685 294.59 L 792.485 294.59 L 792.485 129.29 L 826.685 129.29 L 826.685 148.19 Q 835.085 137.99 848.135 132.29 Q 861.185 126.59 875.885 126.59 Z M 1027.091 157.19 L 1027.091 248.69 Q 1027.091 257.99 1031.441 262.04 Q 1035.791 266.09 1046.291 266.09 L 1067.291 266.09 L 1067.291 294.59 L 1040.291 294.59 Q 1017.191 294.59 1004.891 283.79 Q 992.591 272.99 992.591 248.69 L 992.591 157.19 L 973.091 157.19 L 973.091 129.29 L 992.591 129.29 L 992.591 88.19 L 1027.091 88.19 L 1027.091 129.29 L 1067.291 129.29 L 1067.291 157.19 Z M 1132.987 153.29 Q 1140.487 140.69 1152.937 133.64 Q 1165.387 126.59 1182.487 126.59 L 1182.487 161.99 L 1173.787 161.99 Q 1153.687 161.99 1143.337 172.19 Q 1132.987 182.39 1132.987 207.59 L 1132.987 294.59 L 1098.787 294.59 L 1098.787 129.29 L 1132.987 129.29 L 1132.987 153.29 Z M 1362.776 129.29 L 1261.376 372.29 L 1225.976 372.29 L 1259.576 291.89 L 1194.476 129.29 L 1232.576 129.29 L 1279.076 255.29 L 1327.376 129.29 Z M 1534.372 148.19 Q 1534.372 164.09 1526.872 178.19 Q 1519.372 192.29 1502.872 201.14 Q 1486.372 209.99 1460.572 209.99 L 1422.772 209.99 L 1422.772 294.59 L 1388.572 294.59 L 1388.572 86.09 L 1460.572 86.09 Q 1484.572 86.09 1501.222 94.34 Q 1517.872 102.59 1526.122 116.69 Q 1534.372 130.79 1534.372 148.19 Z M 1460.572 182.09 Q 1480.072 182.09 1489.672 173.24 Q 1499.272 164.39 1499.272 148.19 Q 1499.272 113.99 1460.572 113.99 L 1422.772 113.99 L 1422.772 182.09 L 1460.572 182.09 Z M 1601.275 153.29 Q 1608.775 140.69 1621.225 133.64 Q 1633.675 126.59 1650.775 126.59 L 1650.775 161.99 L 1642.075 161.99 Q 1621.975 161.99 1611.625 172.19 Q 1601.275 182.39 1601.275 207.59 L 1601.275 294.59 L 1567.075 294.59 L 1567.075 129.29 L 1601.275 129.29 L 1601.275 153.29 Z M 1753.98 297.29 Q 1730.58 297.29 1711.68 286.64 Q 1692.78 275.99 1681.98 256.64 Q 1671.18 237.29 1671.18 211.79 Q 1671.18 186.59 1682.28 167.09 Q 1693.38 147.59 1712.58 137.09 Q 1731.78 126.59 1755.48 126.59 Q 1779.18 126.59 1798.38 137.09 Q 1817.58 147.59 1828.68 167.09 Q 1839.78 186.59 1839.78 211.79 Q 1839.78 236.99 1828.38 256.49 Q 1816.98 275.99 1797.33 286.64 Q 1777.68 297.29 1753.98 297.29 Z M 1753.98 267.59 Q 1767.18 267.59 1778.73 261.29 Q 1790.28 254.99 1797.48 242.39 Q 1804.68 229.79 1804.68 211.79 Q 1804.68 193.79 1797.78 181.34 Q 1790.88 168.89 1779.48 162.59 Q 1768.08 156.29 1754.88 156.29 Q 1741.68 156.29 1730.43 162.59 Q 1719.18 168.89 1712.58 181.34 Q 1705.98 193.79 1705.98 211.79 Q 1705.98 238.49 1719.63 253.04 Q 1733.28 267.59 1753.98 267.59 Z" style="fill: rgb(255, 255, 255);"/>
</svg>