<?xml version="1.0" encoding="utf-8"?>
<svg version="1.1" id="Layer_1" x="0px" y="0px" width="100%" viewBox="0 0 400 400" enable-background="new 0 0 400 400" xmlns="http://www.w3.org/2000/svg">
  <defs>
    <linearGradient gradientUnits="userSpaceOnUse" x1="204.819" y1="28.264" x2="204.819" y2="401" id="gradient-0" spreadMethod="pad">
      <stop offset="0" style="stop-color: rgb(31.373% 62.745% 23.922%)"/>
      <stop offset="1" style="stop-color: rgb(0% 38.527% 0%)"/>
    </linearGradient>
  </defs>
  <g>
    <path opacity="1.000000" stroke="none" d="M 94.946 69.886 C 118.794 48.31 146.828 35.569 178.448 30.522 C 224.347 23.195 265.977 33.83 303.722 60.569 C 304.531 61.142 305.282 61.798 306.716 62.936 C 300.707 66.634 301.212 72.804 300.445 78.431 C 296.263 109.106 292.176 139.794 288.101 170.484 C 286.935 179.264 290.081 182.975 298.819 183.427 C 299.943 183.485 301.062 183.648 302.733 183.818 C 302.733 186.007 302.733 187.956 302.733 189.905 C 302.734 223.225 302.783 256.545 302.677 289.865 C 302.663 294.453 303.273 298.5 308.312 301.979 C 300.738 306.86 293.888 311.773 286.589 315.891 C 260.935 330.365 233.231 337.095 203.819 337.033 C 185.509 336.995 167.199 337.026 148.153 337.026 C 148.153 358.23 148.153 379.152 148.077 400.537 C 113.312 401 78.625 401 43.469 401 C 43.02 326.703 42.546 252.4 43.289 178.11 C 43.609 146.11 54.911 117.201 74.392 91.664 C 74.649 91.327 75.071 91.116 76.003 90.384 C 76.003 102.397 76.206 113.823 75.949 125.238 C 75.659 138.112 80.546 147.723 92.091 153.952 C 93.538 154.733 94.537 157.661 94.544 159.599 C 94.684 199.08 94.647 238.561 94.651 278.042 C 94.651 283.039 94.559 288.041 94.724 293.033 C 94.901 298.355 98.058 301.732 102.815 302.053 C 107.728 302.384 111.302 299.631 112.345 294.455 C 112.735 292.52 112.763 290.489 112.764 288.501 C 112.786 245.855 112.822 203.208 112.71 160.562 C 112.699 156.719 113.443 154.368 117.221 152.329 C 126.303 147.426 130.76 139.171 130.883 128.947 C 131.096 111.292 130.968 93.631 130.927 75.973 C 130.914 70.411 128.609 67.598 124.45 67.76 C 120.547 67.911 118.556 70.595 118.534 75.981 C 118.493 86.274 118.522 96.568 118.522 107.105 C 115.492 107.105 112.936 107.105 109.851 107.105 C 109.851 96.327 110.158 85.86 109.8 75.408 C 109.561 68.426 103.294 66.803 100 69.788 C 98.903 70.782 98.669 71.651 98.35 72.202 C 98.046 72.728 97.546 74.69 97.569 75.517 C 97.046 75.884 94.545 71.771 94.173 70.562 M 243.355 122.076 C 259.703 132.119 270.276 146.692 276.369 164.882 C 278.883 149.914 280.953 135.255 282.697 120.557 C 282.907 118.79 281.798 116.412 280.538 114.992 C 246.69 76.84 185.585 71.3 145.527 102.758 C 144.217 103.786 143.151 105.925 143.081 107.593 C 142.804 114.246 143.053 120.92 142.947 127.584 C 142.743 140.304 137.905 150.909 127.817 158.774 C 125.107 160.887 124.319 163.143 124.334 166.396 C 124.44 190.391 124.3 214.387 124.517 238.38 C 124.541 241.097 125.631 244.352 127.351 246.424 C 149.971 273.662 178.968 286.763 214.422 284.027 C 245.665 281.616 270.366 267.028 288.772 241.763 C 289.864 240.264 290.678 238.174 290.701 236.348 C 290.866 223.519 290.832 210.687 290.721 197.858 C 290.71 196.564 290.126 194.836 289.187 194.069 C 285.68 191.204 281.915 188.655 278.38 186.084 C 275.244 227.534 244.455 250.779 215.426 254.723 C 185.287 258.817 154.861 242.218 141.31 213.816 C 127.868 185.642 134.752 151.668 158.256 130.194 C 181.223 109.21 215.994 105.733 243.355 122.076 M 244.666 229.194 C 257.544 218.122 265.189 204.147 265.882 187.185 C 267.38 150.527 240.248 123.196 203.587 123.784 C 168.506 124.347 140.277 159.658 147.433 194.025 C 156.908 239.533 207.444 258.154 244.666 229.194 Z M 94.698 70.108 C 95.367 71.143 97.187 72.979 97.614 75.007 C 97.613 86.539 97.606 96.526 97.549 107.237 C 95.393 107.237 91.691 107.285 88.664 107.285 C 88.664 102.75 88.677 98.343 88.664 93.936 C 88.653 90.273 88.64 86.524 88.684 82.908 C 88.751 77.34 90.272 73.823 94.698 70.108 Z M 338.202332 270.183075 C 333.065155 276.526428 328.134888 282.578522 323.20462 288.630615 C 322.805237 288.505554 322.405853 288.380493 322.00647 288.255432 C 322.00647 217.880447 322.00647 147.505463 322.00647 77.142334 C 363.932465 115.62796 389.492981 197.299835 338.202332 270.183075 Z" style="opacity: 0.9; fill: url('#gradient-0');"/>
  </g>
</svg>